<?xml version="1.0" encoding="UTF-8"?>
<svg version="1.1" xmlns="http://www.w3.org/2000/svg" width="200" height="200">
<path d="M0 0 C9.01293545 5.32357451 15.40748399 12.19252072 20.15625 21.4921875 C20.98769531 21.07066406 21.81914062 20.64914063 22.67578125 20.21484375 C23.76246094 19.66699219 24.84914063 19.11914062 25.96875 18.5546875 C27.04769531 18.00941406 28.12664062 17.46414062 29.23828125 16.90234375 C36.06651481 13.60248791 43.73153035 13.14789256 51.0234375 15.36328125 C57.24452859 18.2469177 62.05955871 22.29880492 65.15625 28.4921875 C66.04545511 37.23180341 65.39048969 44.27605123 60.15625 51.4921875 C54.1243983 58.31080247 46.83430692 62.20240296 37.84375 63.4921875 C20.80974431 64.37960076 -1.72394022 58.14906013 -15.84375 48.4921875 C-16.17375 48.1621875 -16.50375 47.8321875 -16.84375 47.4921875 C-18.8185781 47.19134642 -20.79902882 46.92717603 -22.78125 46.6796875 C-31.61112039 45.34505211 -39.20724089 43.33731338 -45.37109375 36.546875 C-49.44460779 30.86340448 -51.73505319 24.495284 -50.84375 17.4921875 C-49.01720675 9.0538596 -45.05251116 3.40742188 -37.84375 -1.3203125 C-25.64207805 -8.76841642 -12.01020033 -6.36804578 0 0 Z " fill="#1D1C1A" transform="translate(112.84375,15.5078125)"/>
<path d="M0 0 C22.98332947 0.6529355 48.8121763 21.14483454 65.6875 35.4375 C66.90759766 36.45650391 66.90759766 36.45650391 68.15234375 37.49609375 C72.40671031 41.14367869 76.02996967 44.46907374 78.6875 49.4375 C78.6875 50.4275 78.6875 51.4175 78.6875 52.4375 C79.65429688 52.76427734 79.65429688 52.76427734 80.640625 53.09765625 C84.84695236 54.94736174 88.57765201 57.39447717 92.4375 59.875 C93.67874634 60.66765259 93.67874634 60.66765259 94.94506836 61.47631836 C96.66688038 62.57707919 98.38748938 63.67972389 100.10693359 64.78417969 C102.6131045 66.3898362 105.12760873 67.98157748 107.64453125 69.5703125 C109.17995336 70.54645695 110.71512091 71.52300193 112.25 72.5 C113.32942871 73.17857056 113.32942871 73.17857056 114.43066406 73.87084961 C117.54864419 75.87012754 119.60733786 77.31725679 121.6875 80.4375 C122.37093706 84.21438904 122.53857095 87.90936889 120.63671875 91.32421875 C117.53865905 95.09855107 115.76759649 96.32949035 110.9375 96.8125 C107.42151189 96.75496565 106.5122051 96.33037534 103.3125 94.375 C100.6875 91.4375 100.6875 91.4375 99.97265625 88.0546875 C98.24968179 83.20522139 95.87742547 81.99769149 91.5 79.625 C90.85224609 79.24408203 90.20449219 78.86316406 89.53710938 78.47070312 C85.35642502 76.08591714 81.33975331 74.73010212 76.6875 73.4375 C74.5 72.11328125 74.5 72.11328125 72.6875 70.75 C69.76669402 68.84367244 69.05181906 68.41648159 65.4375 68.625 C63.58125 69.0271875 63.58125 69.0271875 61.6875 69.4375 C40.5204384 72.20124844 19.07700855 54.42480091 3.23828125 42.26171875 C2.05061464 41.32545602 0.86703903 40.38398168 -0.3125 39.4375 C-0.94760498 38.92799805 -1.58270996 38.41849609 -2.23706055 37.89355469 C-7.92547253 33.19272962 -10.66306626 28.97740943 -11.7265625 21.54296875 C-12.08886749 14.11571653 -10.38791772 8.63707483 -6.3125 2.4375 C-3.92584964 0.05084964 -3.27798475 0.09120416 0 0 Z " fill="#181413" transform="translate(33.3125,93.5625)"/>
<path d="M0 0 C6.65196265 3.81774009 6.65196265 3.81774009 8.5625 7.8125 C9.66973216 14.54189156 8.8357085 20.03165625 5.18359375 25.8046875 C0.9625571 31.03267025 -3.97691775 34.0712943 -10.4375 35.8125 C-27.8861253 37.49288273 -45.85837216 32.60206392 -61.4375 24.8125 C-61.4375 24.1525 -61.4375 23.4925 -61.4375 22.8125 C-60.92477539 22.61205078 -60.41205078 22.41160156 -59.88378906 22.20507812 C-46.20646471 16.80274938 -34.85876014 10.69138605 -23.47265625 1.2578125 C-16.33208968 -3.81322326 -7.74285788 -3.6423503 0 0 Z " fill="#EEDCB7" transform="translate(164.4375,37.1875)"/>
<path d="M0 0 C2.1622546 1.22734533 4.0044496 2.49116921 6 4 C6.804375 4.53625 7.60875 5.0725 8.4375 5.625 C13.74949264 10.54831025 17.57681582 15.88407911 19 23 C15.7 24.98 12.4 26.96 9 29 C7.19764573 27.19764573 5.41831951 25.37115623 3.6875 23.5 C-0.32974934 19.76302387 -3.41497682 18.20451912 -8.875 17.5 C-13.77192412 17.69738082 -17.30302682 19.91634956 -21 23 C-24.36078309 27.01125723 -24.57091474 30.93679398 -25 36 C-31.5196657 34.77756268 -35.49077458 31.82603283 -40 27 C-43.30017337 21.77472549 -42.34786089 15.24177017 -41.4375 9.375 C-38.76397846 3.09803639 -33.5838898 -1.56868793 -27.3515625 -4.3359375 C-17.50708364 -7.11593984 -8.7912157 -4.62068415 0 0 Z " fill="#FBECCB" transform="translate(110,20)"/>
<path d="M0 0 C3.68292235 1.52686075 5.85043714 3.73868598 8.5625 6.625 C13.55701795 11.72326165 18.84899475 16.33600686 25 20 C25.99 20 26.98 20 28 20 C28 19.01 28 18.02 28 17 C25.57825341 14.92130041 25.57825341 14.92130041 22.5625 12.9375 C17.09329446 9.18658892 17.09329446 9.18658892 16 7 C21.16987457 8.51432547 25.63375993 10.76643591 30.3125 13.375 C31.09069092 13.8083667 31.86888184 14.2417334 32.6706543 14.68823242 C38.41627611 17.95614528 43.90892742 21.50763509 49.3125 25.3125 C50.01093018 25.80347168 50.70936035 26.29444336 51.42895508 26.80029297 C55.31277104 29.5971723 58.71821056 32.51508239 62 36 C57.10761749 34.53834392 52.837623 32.48493978 48.375 30.0625 C47.72015625 29.71509766 47.0653125 29.36769531 46.390625 29.00976562 C43.05080765 27.21478282 40.02160291 25.27655014 37 23 C34.35065178 22.28566879 34.35065178 22.28566879 32 22 C33.42122998 25.51804959 34.92476486 26.89295003 38.19140625 28.76953125 C39.04621582 29.26283936 39.90102539 29.75614746 40.78173828 30.2644043 C41.69938965 30.77527588 42.61704102 31.28614746 43.5625 31.8125 C44.96604736 32.60491089 44.96604736 32.60491089 46.39794922 33.41333008 C55.57736878 38.49649009 65.04388394 42.68129465 75 46 C73.81257933 49.69419764 71.56050889 51.46466613 68.16992188 53.2421875 C62.29598775 55.29357043 55.82419601 54.68061761 50.18359375 52.234375 C48.58810512 51.43248354 47.00616739 50.60316852 45.4375 49.75 C44.58687988 49.30543457 43.73625977 48.86086914 42.85986328 48.40283203 C4.96783733 28.13435157 4.96783733 28.13435157 -1 14 C-1.43050981 9.193945 -1.3325355 4.653128 0 0 Z " fill="#E8212A" transform="translate(28,104)"/>
<path d="M0 0 C3.69951568 2.08208037 6.43361217 4.03856249 8.5625 7.8125 C8.5625 9.1325 8.5625 10.4525 8.5625 11.8125 C7.99402344 11.5959375 7.42554688 11.379375 6.83984375 11.15625 C-0.54908808 8.49179378 -6.51259151 7.94988438 -13.98828125 10.640625 C-18.92638631 13.00335469 -23.11416438 16.49247012 -27.4375 19.8125 C-29.22048073 21.11613029 -31.01175683 22.40851748 -32.8125 23.6875 C-33.58335937 24.24179687 -34.35421875 24.79609375 -35.1484375 25.3671875 C-37.4375 26.8125 -37.4375 26.8125 -40.1640625 27.8828125 C-42.59937676 28.58741577 -42.59937676 28.58741577 -43.4375 30.8125 C-49.90462188 29.65055848 -55.53372349 27.6876252 -61.4375 24.8125 C-61.4375 24.1525 -61.4375 23.4925 -61.4375 22.8125 C-60.92477539 22.61205078 -60.41205078 22.41160156 -59.88378906 22.20507812 C-46.20646471 16.80274938 -34.85876014 10.69138605 -23.47265625 1.2578125 C-16.33208968 -3.81322326 -7.74285788 -3.6423503 0 0 Z " fill="#E8CC9B" transform="translate(164.4375,37.1875)"/>
<path d="M0 0 C0 0.33 0 0.66 0 1 C-1.216875 1 -2.43375 1 -3.6875 1 C-6.54545235 1.32937394 -7.65428319 1.61820109 -9.609375 3.77734375 C-10.86042593 5.81214129 -11.97288307 7.84437691 -13 10 C-13.33 10.66 -13.66 11.32 -14 12 C-14.53167717 17.95973016 -13.82502785 23.32213557 -12 29 C-11.34 29.33 -10.68 29.66 -10 30 C-10.66 30.99 -11.32 31.98 -12 33 C-12.45139459 35.0492094 -12.45139459 35.0492094 -12.625 37.1875 C-12.74875 38.445625 -12.8725 39.70375 -13 41 C-19.5196657 39.77756268 -23.49077458 36.82603283 -28 32 C-31.30017337 26.77472549 -30.34786089 20.24177017 -29.4375 14.375 C-26.75284767 8.07190323 -21.59133286 3.52067831 -15.3984375 0.64453125 C-10.37766572 -0.70469895 -5.14858775 -0.28254445 0 0 Z " fill="#F2D4AF" transform="translate(98,15)"/>
<path d="M0 0 C23.64966065 0.41490633 53.87675086 23.66404309 70 40 C73 43.64137931 73 43.64137931 73 46 C69.05884194 45.49146348 67.37427168 44.76087239 64.8125 41.75 C48.94265394 25.13718362 26.55052291 14.2426992 5.89672852 4.87866211 C3.91016063 3.95838179 1.95361411 2.98806903 0 2 C0 1.34 0 0.68 0 0 Z " fill="#727272" transform="translate(33,99)"/>
<path d="M0 0 C3.79570763 1.56397212 6.15699048 3.95398107 9 6.875 C9.845625 7.73867187 10.69125 8.60234375 11.5625 9.4921875 C12.7690625 10.73355469 12.7690625 10.73355469 14 12 C15.33108299 13.33557989 16.66357668 14.66976383 18 16 C17.67 16.33 17.34 16.66 17 17 C16.92728259 19.35313555 16.91629132 21.70833668 16.9375 24.0625 C16.94652344 25.35285156 16.95554687 26.64320313 16.96484375 27.97265625 C16.97644531 28.97167969 16.98804687 29.97070312 17 31 C9.64895083 27.09944329 1.71317807 22.352012 -1 14 C-1.52227478 9.17268883 -1.32252018 4.67720552 0 0 Z " fill="#C41E25" transform="translate(28,104)"/>
<path d="M0 0 C3.42508523 1.28318075 6.44661593 2.76571961 9.5390625 4.71484375 C10.36664063 5.23626953 11.19421875 5.75769531 12.046875 6.29492188 C13.32304687 7.10799805 13.32304687 7.10799805 14.625 7.9375 C15.48351562 8.47568359 16.34203125 9.01386719 17.2265625 9.56835938 C24.81791913 14.37819549 24.81791913 14.37819549 27 17 C27.39365568 20.14924548 27.52854531 22.11909116 25.875 24.875 C23.08893958 26.54663625 21.18011138 26.46376624 18 26 C16.1875 24.375 16.1875 24.375 15 22 C14.97550781 21.06929687 14.95101562 20.13859375 14.92578125 19.1796875 C13.52335476 14.36291465 10.22463415 13.10185818 6 10.75 C4.51847954 9.89468922 3.03919002 9.03549877 1.5625 8.171875 C0.90378906 7.8015918 0.24507813 7.43130859 -0.43359375 7.04980469 C-2 6 -2 6 -3 4 C-2.01 2.68 -1.02 1.36 0 0 Z " fill="#575865" transform="translate(123,159)"/>
<path d="M0 0 C1.890625 0.74609375 1.890625 0.74609375 4.953125 2.43359375 C5.953125 5.43359375 5.953125 5.43359375 4.87890625 7.625 C4.34652344 8.40746094 3.81414063 9.18992187 3.265625 9.99609375 C2.48638672 11.17365234 2.48638672 11.17365234 1.69140625 12.375 C-0.1449388 14.54972773 -1.37916035 15.49265564 -4.046875 16.43359375 C-7.4037592 16.25691563 -10.01105408 16.0550863 -12.921875 14.30859375 C-14.69671167 11.35053263 -14.92887502 8.85559329 -15.046875 5.43359375 C-11.97539993 -1.29439926 -6.78292757 -1.87695515 0 0 Z " fill="#2A2825" transform="translate(60.046875,80.56640625)"/>
<path d="M0 0 C4.30364851 5.35048193 5.12738767 9.2484536 5 16 C0.81726356 18.09136822 -4.54847635 17.40148526 -8.9375 16.1875 C-11 15 -11 15 -13 12 C-13.67540029 4.90829694 -13.67540029 4.90829694 -11.1875 1.5625 C-7.27392787 -1.23290866 -4.53182011 -1.38729187 0 0 Z " fill="#292622" transform="translate(66,56)"/>
<path d="M0 0 C3.15422611 1.47197219 5.87808125 3.20800165 8 6 C8 7.32 8 8.64 8 10 C0.19146117 13.11008659 -6.47920547 15.73455125 -15 15 C-15.66964286 7.23214286 -15.66964286 7.23214286 -12.625 3.5625 C-8.64486138 -0.32287342 -5.42494016 -0.5946569 0 0 Z " fill="#E76436" transform="translate(105,42)"/>
<path d="M0 0 C2.88381579 2.58803981 3.8491179 4.19529549 4.5625 8 C3.78698584 12.13607554 2.38677089 13.54999553 -1 16 C-4.5 16.625 -4.5 16.625 -8 16 C-10.75 13.75 -10.75 13.75 -13 11 C-13.61875 10.34 -14.2375 9.68 -14.875 9 C-16 7 -16 7 -16.1875 4.4375 C-14.81071953 1.61147693 -14.18275667 1.31897808 -11.375 0.125 C-7.27537357 -1.15337814 -4.17109398 -1.28341353 0 0 Z " fill="#242322" transform="translate(147,95)"/>
<path d="M0 0 C3.30144259 0 5.40327517 0.52028004 7.9921875 2.6015625 C11.27569546 6.01693825 12.92828127 7.92421907 13.25 12.75 C11.76234602 16.61790034 10.61420289 17.99210951 7 20 C4 20.5625 4 20.5625 1 20 C-2.54142587 17.45941187 -3.82787348 16.01363396 -4.5625 11.6875 C-3.8793539 7.2090978 -2.25914196 3.88290025 0 0 Z " fill="#22211F" transform="translate(121,110)"/>
<path d="M0 0 C1.32 0.66 2.64 1.32 4 2 C2.48361476 9.44333183 0.43751073 16.69709296 -1.77636719 23.95922852 C-2.17863481 25.28858191 -2.57404642 26.62002752 -2.96289062 27.95336914 C-3.53055499 29.89913842 -4.1204317 31.83838428 -4.7109375 33.77734375 C-5.05431152 34.92452881 -5.39768555 36.07171387 -5.75146484 37.25366211 C-7 40 -7 40 -9.14306641 41.38891602 C-9.75585449 41.59057373 -10.36864258 41.79223145 -11 42 C-11.66 41.34 -12.32 40.68 -13 40 C-11.79468487 32.50642897 -9.36498577 25.27733948 -7.11376953 18.04077148 C-6.49435806 16.04431519 -5.88566766 14.04478065 -5.27734375 12.04492188 C-4.88345578 10.77063431 -4.4889474 9.49653832 -4.09375 8.22265625 C-3.73990234 7.07547119 -3.38605469 5.92828613 -3.02148438 4.74633789 C-2 2 -2 2 0 0 Z " fill="#323232" transform="translate(102,76)"/>
<path d="M0 0 C5.16987457 1.51432547 9.63375993 3.76643591 14.3125 6.375 C15.09069092 6.8083667 15.86888184 7.2417334 16.6706543 7.68823242 C22.41627611 10.95614528 27.90892742 14.50763509 33.3125 18.3125 C34.01093018 18.80347168 34.70936035 19.29444336 35.42895508 19.80029297 C39.31277104 22.5971723 42.71821056 25.51508239 46 29 C41.10761749 27.53834392 36.837623 25.48493978 32.375 23.0625 C31.72015625 22.71509766 31.0653125 22.36769531 30.390625 22.00976562 C27.73336641 20.58162361 25.20350893 19.15570968 22.8046875 17.3203125 C20.7838049 15.84183129 19.18413578 15.33989609 16.75 14.8125 C15.5125 14.544375 14.275 14.27625 13 14 C12.9484375 13.42507812 12.896875 12.85015625 12.84375 12.2578125 C11.601619 8.93396196 9.40091209 7.84133989 6.5 5.875 C1.09001957 2.18003914 1.09001957 2.18003914 0 0 Z " fill="#E7A52C" transform="translate(44,111)"/>
<path d="M0 0 C2.50908981 1.05645887 3.81005744 1.77613426 5.375 4 C5.375 5.32 5.375 6.64 5.375 8 C3.60641309 8.67260351 1.83503984 9.33788395 0.0625 10 C-0.92363281 10.37125 -1.90976563 10.7425 -2.92578125 11.125 C-5.625 12 -5.625 12 -8.625 12 C-8.37469935 7.74488892 -7.96290677 5.45054235 -5.375 2 C-2.625 0 -2.625 0 0 0 Z " fill="#EF7E30" transform="translate(107.625,44)"/>
<path d="M0 0 C3.59391114 1.33488128 6.75490696 2.96022723 10 5 C9.40072174 8.35595828 8.15377564 10.37801226 6 13 C2.08788267 11.84414715 -0.8745041 10.64465038 -4 8 C-2.87548273 5.0280615 -1.77706209 2.66559313 0 0 Z " fill="#545467" transform="translate(109,150)"/>
<path d="M0 0 C3.99417171 1.3694303 7.03764468 2.95300596 10 6 C10.3125 9.25 10.3125 9.25 10 12 C9.01 12.33 8.02 12.66 7 13 C4.23760649 11.58511552 2.19636905 10.19636905 0 8 C-0.26991906 5.31160615 -0.08737357 2.70858064 0 0 Z " fill="#636464" transform="translate(140,170)"/>
<path d="M0 0 C2.0625 0.4375 2.0625 0.4375 4 1 C3.50341703 6.66104589 2.45489316 10.87674471 0 16 C-1.9375 15.625 -1.9375 15.625 -4 15 C-5 13 -5 13 -4.2578125 10.21484375 C-3.88398437 9.13332031 -3.51015625 8.05179688 -3.125 6.9375 C-2.75632812 5.85339844 -2.38765625 4.76929687 -2.0078125 3.65234375 C-1 1 -1 1 0 0 Z " fill="#383838" transform="translate(86,67)"/>
<path d="M0 0 C0.99 0.33 1.98 0.66 3 1 C2.63495936 6.66442374 1.9445679 11.00703705 -1 16 C-2.32 15.67 -3.64 15.34 -5 15 C-4.49026224 10.07253501 -3.91479324 5.61803076 -2 1 C-1.34 0.67 -0.68 0.34 0 0 Z " fill="#353535" transform="translate(119,77)"/>
<path d="M0 0 C4.62675657 1.3922459 8.64686231 3.29520984 12.875 5.625 C14.02742188 6.25664063 15.17984375 6.88828125 16.3671875 7.5390625 C17.67042969 8.26222656 17.67042969 8.26222656 19 9 C17.68 9.33 16.36 9.66 15 10 C15 11.32 15 12.64 15 14 C14.34 14 13.68 14 13 14 C12.9484375 13.42507812 12.896875 12.85015625 12.84375 12.2578125 C11.601619 8.93396196 9.40091209 7.84133989 6.5 5.875 C1.09001957 2.18003914 1.09001957 2.18003914 0 0 Z " fill="#E67A2E" transform="translate(44,111)"/>
<path d="M0 0 C1.32 0 2.64 0 4 0 C5 3 5 3 3.6875 6.625 C2 10 2 10 0 11 C-0.99 10.34 -1.98 9.68 -3 9 C-2.69181644 7.68647977 -2.37832335 6.37420428 -2.0625 5.0625 C-1.88847656 4.33160156 -1.71445313 3.60070312 -1.53515625 2.84765625 C-1 1 -1 1 0 0 Z " fill="#3C3C3C" transform="translate(111,100)"/>
<path d="M0 0 C3.59391114 1.33488128 6.75490696 2.96022723 10 5 C9.67 6.32 9.34 7.64 9 9 C5.04179141 8.43454163 2.3340947 7.19097652 -1 5 C-0.67 3.35 -0.34 1.7 0 0 Z " fill="#727273" transform="translate(109,150)"/>
<path d="M0 0 C1.32 0.33 2.64 0.66 4 1 C3.64766839 6.4611399 3.64766839 6.4611399 3 9 C0.9375 10.5 0.9375 10.5 -1 11 C-1.66 10.34 -2.32 9.68 -3 9 C-2.67582137 5.19090105 -2.14418558 3.21627837 0 0 Z " fill="#353535" transform="translate(79,90)"/>
<path d="M0 0 C0.38218767 1.65614657 0.71395102 3.32457024 1 5 C0 6 0 6 -2.375 6.3125 C-5 6 -5 6 -6.8125 4.125 C-8 2 -8 2 -8 0 C-4.71023192 -1.09658936 -3.28696233 -0.79953138 0 0 Z " fill="#DCAE58" transform="translate(145,100)"/>
<path d="M0 0 C2.46800047 1.15173355 4.04783565 2.04783565 6 4 C5.625 6.125 5.625 6.125 5 8 C3.34385343 8.38218767 1.67542976 8.71395102 0 9 C-1 8 -1 8 -1.125 5.0625 C-1 2 -1 2 0 0 Z " fill="#DDA02A" transform="translate(123,116)"/>
<path d="M0 0 C2.33944736 0.28730055 4.6739143 0.61936779 7 1 C5.125 4.875 5.125 4.875 4 6 C2.33382885 6.04063832 0.66611905 6.042721 -1 6 C-1.042721 4.33388095 -1.04063832 2.66617115 -1 1 C-0.67 0.67 -0.34 0.34 0 0 Z " fill="#F4C162" transform="translate(52,85)"/>
<path d="M0 0 C1.2065625 0.0309375 1.2065625 0.0309375 2.4375 0.0625 C2.7675 2.0425 3.0975 4.0225 3.4375 6.0625 C1.4575 6.0625 -0.5225 6.0625 -2.5625 6.0625 C-2.94468767 4.40635343 -3.27645102 2.73792976 -3.5625 1.0625 C-2.5625 0.0625 -2.5625 0.0625 0 0 Z " fill="#F1AE2E" transform="translate(61.5625,60.9375)"/>
<path d="M0 0 C0.66 0.33 1.32 0.66 2 1 C-1.63 4.63 -5.26 8.26 -9 12 C-9 7.8407692 -6.75316432 5.85455565 -4 3 C-1.6875 1.125 -1.6875 1.125 0 0 Z " fill="#575757" transform="translate(75,14)"/>
<path d="M0 0 C3.91211733 1.15585285 6.8745041 2.35534962 10 5 C9.01 5.66 8.02 6.32 7 7 C5.83040013 6.02433888 4.66438823 5.044375 3.5 4.0625 C2.8503125 3.51722656 2.200625 2.97195312 1.53125 2.41015625 C1.0259375 1.94480469 0.520625 1.47945313 0 1 C0 0.67 0 0.34 0 0 Z " fill="#CA6A28" transform="translate(44,111)"/>
</svg>
