<?xml version="1.0" encoding="UTF-8"?>
<svg version="1.1" xmlns="http://www.w3.org/2000/svg" width="200" height="200">
<path d="M0 0 C5.69189108 2.32625114 9.38563123 6.14319197 13 11 C14.155 10.46375 15.31 9.9275 16.5 9.375 C20.48195938 7.89235555 23.20197867 7.8254052 27.23046875 9.15234375 C30.29938499 10.6224427 31.50372027 11.94238491 33 15 C33.49839309 19.09286444 33.08106747 22.46609602 30.67578125 25.87890625 C27.12071143 29.3179598 23.60288475 30.98760903 18.6640625 31.2421875 C10.58801731 30.50800157 3.17872506 27.5992779 -4 24 C-6.10395557 23.39234903 -6.10395557 23.39234903 -8.0625 23.0625 C-11.89006074 22.1550095 -14.27800727 20.96216856 -17 18 C-18.89864781 13.80715276 -19.21054917 11.77640006 -18 7.3125 C-13.67039216 0.14158702 -7.94627572 -1.41239831 0 0 Z " fill="#444342" transform="translate(100,43)"/>
<path d="M0 0 C10.80830915 4.06947233 22.1062641 10.78170412 29.25 19.9375 C33.0568967 24.72959861 38.27379126 27.43802214 43.57910156 30.32397461 C48.76753825 33.29220603 48.76753825 33.29220603 50.046875 37.1875 C50 40 50 40 48.875 41.875 C46.26566235 43.44060259 44.98927328 43.65618194 42 43 C40.60699818 41.04109119 39.27754554 39.0360882 38 37 C33.21489172 33.30863076 26.73279862 30.84531329 20.6875 31.1875 C10.43486811 30.66617973 0.58610649 22.48649171 -7 16 C-9.69469307 11.95796039 -9.53918165 8.74137511 -9 4 C-6.98008259 -0.60092299 -4.72133029 -0.39157953 0 0 Z " fill="#1F180D" transform="translate(73,80)"/>
<path d="M0 0 C0.85464844 0.05542969 1.70929688 0.11085937 2.58984375 0.16796875 C5.91198635 1.03393009 7.08881321 1.99358971 9.0625 4.8125 C9.46350915 7.64315284 9.62372899 9.99596659 9.5625 12.8125 C9.57796875 13.5240625 9.5934375 14.235625 9.609375 14.96875 C9.58441821 18.31295976 9.28926656 20.46798926 7.4375 23.28125 C4.32935673 25.28518447 2.24289567 25.3462651 -1.4375 25.3125 C-2.5615625 25.3228125 -3.685625 25.333125 -4.84375 25.34375 C-7.9375 24.8125 -7.9375 24.8125 -10.3125 23.31640625 C-12.68281477 19.66407026 -12.52388109 16.51506646 -12.4375 12.25 C-12.45296875 11.48236328 -12.4684375 10.71472656 -12.484375 9.92382812 C-12.44552628 4.35389241 -12.44552628 4.35389241 -10.09375 1.84765625 C-6.48568841 0.11552523 -3.94631457 -0.3145183 0 0 Z " fill="#EE373F" transform="translate(109.9375,131.1875)"/>
<path d="M0 0 C2.578125 -0.061875 5.15625 -0.12375 7.8125 -0.1875 C9.02450073 -0.22846802 9.02450073 -0.22846802 10.26098633 -0.27026367 C15.47154292 -0.33105677 15.47154292 -0.33105677 18.0078125 1.2578125 C19.22575116 3.39639771 19.24942258 4.62338824 19.0625 7.0625 C19.041875 8.361875 19.02125 9.66125 19 11 C19.66 11.66 20.32 12.32 21 13 C21.1953125 15.6015625 21.1953125 15.6015625 21.125 18.625 C21.10695312 19.62789062 21.08890625 20.63078125 21.0703125 21.6640625 C21.04710937 22.43492187 21.02390625 23.20578125 21 24 C18.36 24 15.72 24 13 24 C12.67 21.69 12.34 19.38 12 17 C11.01 17 10.02 17 9 17 C8.67 19.31 8.34 21.62 8 24 C5.36 24 2.72 24 0 24 C0 16.08 0 8.16 0 0 Z " fill="#EF3E46" transform="translate(146,132)"/>
<path d="M0 0 C1.65322266 0.01740234 1.65322266 0.01740234 3.33984375 0.03515625 C4.99693359 0.04869141 4.99693359 0.04869141 6.6875 0.0625 C7.54214844 0.07410156 8.39679688 0.08570313 9.27734375 0.09765625 C13.42014725 8.12433802 13.74056179 15.16784187 13.27734375 24.09765625 C10.63734375 24.09765625 7.99734375 24.09765625 5.27734375 24.09765625 C5.27734375 22.11765625 5.27734375 20.13765625 5.27734375 18.09765625 C3.62734375 18.09765625 1.97734375 18.09765625 0.27734375 18.09765625 C0.27734375 20.07765625 0.27734375 22.05765625 0.27734375 24.09765625 C-2.055604 24.14007348 -4.38968192 24.13858562 -6.72265625 24.09765625 C-8.38564115 22.43467135 -7.97361176 20.5095201 -8.03515625 18.22265625 C-8.00576344 12.60862878 -7.06590023 0.25343975 0 0 Z " fill="#EE3840" transform="translate(58.72265625,131.90234375)"/>
<path d="M0 0 C2.64 0 5.28 0 8 0 C8 5.61 8 11.22 8 17 C9.32 16.67 10.64 16.34 12 16 C12.33 10.72 12.66 5.44 13 0 C15.31 0 17.62 0 20 0 C22.1533974 2.1533974 21.27779978 6.7796613 21.3125 9.75 C21.34150391 10.56210938 21.37050781 11.37421875 21.40039062 12.2109375 C21.44211609 16.15238945 21.26014189 18.50869085 19.38671875 22.046875 C16.27102707 24.59654086 14.48835013 24.6097711 10.5 24.5 C9.3759375 24.4896875 8.251875 24.479375 7.09375 24.46875 C3.68969935 23.95298475 2.44266052 23.3693807 0 21 C-0.45410156 18.73168945 -0.45410156 18.73168945 -0.390625 16.11328125 C-0.37773438 15.17548828 -0.36484375 14.23769531 -0.3515625 13.27148438 C-0.31804687 12.29501953 -0.28453125 11.31855469 -0.25 10.3125 C-0.23195313 9.32443359 -0.21390625 8.33636719 -0.1953125 7.31835938 C-0.14815447 4.87793158 -0.08236042 2.43945231 0 0 Z " fill="#EF3A42" transform="translate(122,132)"/>
<path d="M0 0 C2.64 0 5.28 0 8 0 C8 5.61 8 11.22 8 17 C9.32 17 10.64 17 12 17 C11.98839844 15.85660156 11.97679687 14.71320313 11.96484375 13.53515625 C11.95546712 12.04427246 11.94636679 10.55338691 11.9375 9.0625 C11.92912109 8.30775391 11.92074219 7.55300781 11.91210938 6.77539062 C11.90347559 4.85005687 11.94775667 2.92464419 12 1 C13 0 13 0 16.5625 -0.0625 C17.696875 -0.041875 18.83125 -0.02125 20 0 C20.08703823 3.43734063 20.14040272 6.87439837 20.1875 10.3125 C20.21263672 11.28896484 20.23777344 12.26542969 20.26367188 13.27148438 C20.27333984 14.20927734 20.28300781 15.14707031 20.29296875 16.11328125 C20.3086792 16.97735596 20.32438965 17.84143066 20.34057617 18.73168945 C20 21 20 21 18.66894531 22.78051758 C16.06171416 24.68559651 13.73765217 24.39662419 10.5625 24.375 C9.42941406 24.38273437 8.29632813 24.39046875 7.12890625 24.3984375 C3.66349714 23.95714945 2.47095968 23.40564797 0 21 C-0.45410156 18.73168945 -0.45410156 18.73168945 -0.390625 16.11328125 C-0.37773437 15.17548828 -0.36484375 14.23769531 -0.3515625 13.27148438 C-0.31804687 12.29501953 -0.28453125 11.31855469 -0.25 10.3125 C-0.23195312 9.32443359 -0.21390625 8.33636719 -0.1953125 7.31835938 C-0.14815447 4.87793158 -0.08236042 2.43945231 0 0 Z " fill="#EE373F" transform="translate(170,132)"/>
<path d="M0 0 C3.5 0.125 3.5 0.125 4.5 1.125 C4.7094361 3.10009873 4.86803822 5.08071682 5 7.0625 C5.17735084 11.24667415 5.17735084 11.24667415 6.5 15.125 C7.5541518 11.96254459 7.81275672 9.25551782 8.0625 5.9375 C8.14628906 4.85082031 8.23007813 3.76414063 8.31640625 2.64453125 C8.37699219 1.81308594 8.43757813 0.98164063 8.5 0.125 C11.14 0.125 13.78 0.125 16.5 0.125 C16.93570061 8.63326464 17.08049315 15.71159141 12.5 23.125 C11.5 24.125 11.5 24.125 8.99609375 24.22265625 C7.98675781 24.21105469 6.97742188 24.19945312 5.9375 24.1875 C4.92558594 24.17847656 3.91367188 24.16945312 2.87109375 24.16015625 C1.69740234 24.14275391 1.69740234 24.14275391 0.5 24.125 C-3.27268318 16.40447335 -5.6389657 9.79741024 -4.5 1.125 C-3.5 0.125 -3.5 0.125 0 0 Z " fill="#EF3E46" transform="translate(78.5,131.875)"/>
<path d="M0 0 C3.5 0.125 3.5 0.125 4.5 1.125 C4.57319621 3.82154854 4.59242537 6.49191458 4.5625 9.1875 C4.55798828 9.94611328 4.55347656 10.70472656 4.54882812 11.48632812 C4.5370068 13.36591871 4.51907078 15.24546899 4.5 17.125 C5.49 17.125 6.48 17.125 7.5 17.125 C7.5 15.145 7.5 13.165 7.5 11.125 C10.14 11.125 12.78 11.125 15.5 11.125 C15.5 15.415 15.5 19.705 15.5 24.125 C12.35411056 24.15183697 9.20844729 24.17175902 6.0625 24.1875 C5.16466797 24.19587891 4.26683594 24.20425781 3.34179688 24.21289062 C2.06079102 24.21772461 2.06079102 24.21772461 0.75390625 24.22265625 C-0.03685303 24.22789307 -0.8276123 24.23312988 -1.64233398 24.23852539 C-3.5 24.125 -3.5 24.125 -4.5 23.125 C-4.5991657 21.50242456 -4.63079777 19.87560169 -4.6328125 18.25 C-4.63410156 17.26515625 -4.63539062 16.2803125 -4.63671875 15.265625 C-4.63285156 14.22921875 -4.62898438 13.1928125 -4.625 12.125 C-4.63080078 10.57039062 -4.63080078 10.57039062 -4.63671875 8.984375 C-4.63542969 7.99953125 -4.63414063 7.0146875 -4.6328125 6 C-4.63168457 5.08992187 -4.63055664 4.17984375 -4.62939453 3.2421875 C-4.40933216 -0.35853109 -3.74831852 0.13386852 0 0 Z " fill="#EF454D" transform="translate(33.5,131.875)"/>
<path d="M0 0 C2.875 1.5625 2.875 1.5625 5 4 C5.625 7.4375 5.625 7.4375 5 11 C2.8272578 13.63016161 1.05326212 15.47336894 -2 17 C-8.91114043 17.51193633 -15.47380813 16.34942907 -22 14 C-23.85546875 12.39453125 -23.85546875 12.39453125 -25 11 C-24.19175781 10.61328125 -23.38351563 10.2265625 -22.55078125 9.828125 C-21.48214844 9.30734375 -20.41351563 8.7865625 -19.3125 8.25 C-18.25675781 7.73953125 -17.20101562 7.2290625 -16.11328125 6.703125 C-13.0960509 5.05254479 -10.63451845 3.19620102 -8 1 C-5.14675563 -0.42662219 -3.16545451 -0.31033868 0 0 Z " fill="#EEDBB5" transform="translate(125,54)"/>
<path d="M0 0 C5.61 0 11.22 0 17 0 C17 2.31 17 4.62 17 7 C14.03 7 11.06 7 8 7 C8 7.66 8 8.32 8 9 C9.98 9 11.96 9 14 9 C14 11.31 14 13.62 14 16 C12.02 16 10.04 16 8 16 C8.020625 17.134375 8.04125 18.26875 8.0625 19.4375 C8 23 8 23 7 24 C4.69 24 2.38 24 0 24 C0 16.08 0 8.16 0 0 Z " fill="#EE3740" transform="translate(10,132)"/>
<path d="M0 0 C0 0.99 0 1.98 0 3 C1.32 3.66 2.64 4.32 4 5 C4 5.99 4 6.98 4 8 C2.35 8.66 0.7 9.32 -1 10 C-1.53625 9.34 -2.0725 8.68 -2.625 8 C-4.88209898 5.74106848 -4.88209898 5.74106848 -8.0625 5.5625 C-10.95547637 5.77303839 -10.95547637 5.77303839 -12.8125 7.25 C-14.11258722 9.16591802 -14.60856977 10.72970466 -15 13 C-17.63361256 12.62376963 -19.07220172 11.94785432 -21.25 10.375 C-23 8 -23 8 -23.5625 4.5625 C-22.8582611 0.10232028 -21.53130585 -1.27126366 -18 -4 C-11.67715203 -6.95066239 -5.32324979 -3.36777028 0 0 Z " fill="#F3E5C4" transform="translate(107,50)"/>
<path d="M0 0 C4 3 8 6 12 9 C10.35 7.02 8.7 5.04 7 3 C11.22246654 4.5238977 14.95026848 6.64331258 18.75 9 C19.33910156 9.35578125 19.92820312 9.7115625 20.53515625 10.078125 C24.87634967 12.75269934 24.87634967 12.75269934 26 15 C21.38486888 13.68139111 17.90102388 11.78644563 14 9 C17.02701912 12.36983816 19.98166176 14.1933021 24.0625 16.125 C27.21514503 17.62922865 30.09002953 19.06001969 33 21 C29.20625977 23.52916015 26.38042682 23.80958383 22 23 C13.53002516 19.56144305 4.12466029 13.68699044 -1 6 C-1.1875 3.375 -1.1875 3.375 -1 1 C-0.67 0.67 -0.34 0.34 0 0 Z " fill="#E12029" transform="translate(67,85)"/>
<path d="M0 0 C4.74198798 2.05432014 8.57206668 5.14357501 12 9 C11.67 9.66 11.34 10.32 11 11 C9.0625 10.6875 9.0625 10.6875 7 10 C6.67 9.01 6.34 8.02 6 7 C2.1334912 3.9620288 -1.85711181 2.64356444 -6.75 3 C-9.60478618 3.5029157 -11.06985082 4.04429564 -13.5625 5.625 C-15.59145852 8.97719234 -15.54964081 11.15251431 -15 15 C-12.53969951 18.37152289 -9.91441027 19.69519658 -6 21 C-5.87625 20.21625 -5.7525 19.4325 -5.625 18.625 C-5 16 -5 16 -3 14 C-0.38419521 14.3269756 1.64078137 14.82039068 4 16 C4 16.99 4 17.98 4 19 C2.02 19.66 0.04 20.32 -2 21 C-2 21.99 -2 22.98 -2 24 C-13.24616495 22.34037177 -13.24616495 22.34037177 -17 18 C-18.89864781 13.80715276 -19.21054917 11.77640006 -18 7.3125 C-13.67922245 0.15621219 -7.93811774 -1.43327126 0 0 Z " fill="#494745" transform="translate(100,43)"/>
<path d="M0 0 C1.051875 0.67095703 1.051875 0.67095703 2.125 1.35546875 C3.07375 1.96003906 4.0225 2.56460938 5 3.1875 C5.99773437 3.82945313 6.99546875 4.47140625 8.0234375 5.1328125 C9.81373826 6.25586206 11.62638086 7.34579385 13.4765625 8.3671875 C18.730258 11.29015263 18.730258 11.29015263 20.1875 15.125 C20 18 20 18 18.875 19.875 C16.26566235 21.44060259 14.98927328 21.65618194 12 21 C9.8125 18.125 9.8125 18.125 8 15 C7.34 14.34 6.68 13.68 6 13 C6.66 12.67 7.32 12.34 8 12 C7.01 11.34 6.02 10.68 5 10 C5.33 8.35 5.66 6.7 6 5 C5.34 5 4.68 5 4 5 C3.34 6.32 2.68 7.64 2 9 C0.68 8.34 -0.64 7.68 -2 7 C-1.34 4.69 -0.68 2.38 0 0 Z " fill="#39393C" transform="translate(103,102)"/>
<path d="M0 0 C11.71235064 -0.83154151 23.45728541 8.84580713 32 16 C33.35241808 17.31397142 34.69300036 18.6408431 36 20 C35.67 20.66 35.34 21.32 35 22 C31 22 31 22 29.421875 20.78515625 C28.87015625 20.21667969 28.3184375 19.64820312 27.75 19.0625 C23.78182793 15.38687748 19.5117846 12.80170329 14.8125 10.1875 C14.12317383 9.80279541 13.43384766 9.41809082 12.72363281 9.02172852 C9.22110696 7.10466806 5.75746519 5.37895324 2 4 C2 3.34 2 2.68 2 2 C2.99 1.67 3.98 1.34 5 1 C3.35 1 1.7 1 0 1 C0 0.67 0 0.34 0 0 Z " fill="#646464" transform="translate(67,80)"/>
<path d="M0 0 C2.875 2.5 2.875 2.5 5 5 C3.989375 4.9175 2.97875 4.835 1.9375 4.75 C-5.14999056 5.1999994 -9.40737643 8.9898652 -14 14 C-13.34 14.66 -12.68 15.32 -12 16 C-16.97306516 15.50269348 -20.63799813 14.44697666 -25 12 C-22.82136657 9.82136657 -20.96382775 8.93199687 -18.1875 7.625 C-14.37840096 5.76717103 -11.20559285 3.80489375 -8 1 C-5.11138291 -0.44430855 -3.20352299 -0.37688506 0 0 Z " fill="#E1C797" transform="translate(125,54)"/>
<path d="M0 0 C0.639375 0.185625 1.27875 0.37125 1.9375 0.5625 C2.9584375 0.7790625 2.9584375 0.7790625 4 1 C4.33 0.67 4.66 0.34 5 0 C6.85287502 -0.07226502 8.70833878 -0.0838122 10.5625 -0.0625 C11.57441406 -0.05347656 12.58632812 -0.04445312 13.62890625 -0.03515625 C14.41136719 -0.02355469 15.19382813 -0.01195312 16 0 C16 0.33 16 0.66 16 1 C14.72125 1.185625 13.4425 1.37125 12.125 1.5625 C6.96624333 2.68361562 3.47888817 5.18641106 -0.6953125 8.3203125 C-3.3176026 10.23147308 -6.08915457 11.58189581 -9 13 C-9.33 13.66 -9.66 14.32 -10 15 C-10.66 15 -11.32 15 -12 15 C-12.33 13.68 -12.66 12.36 -13 11 C-10.35261084 9.5393715 -9.10551666 9 -6 9 C-6 8.01 -6 7.02 -6 6 C-9.40320934 5.32326553 -9.40320934 5.32326553 -13 5 C-15.28728734 6.83883881 -15.28728734 6.83883881 -15.125 9.625 C-15.063125 10.800625 -15.063125 10.800625 -15 12 C-16.32 11.67 -17.64 11.34 -19 11 C-16.94736842 3.89473684 -16.94736842 3.89473684 -14 2 C-11.0625 1.5625 -11.0625 1.5625 -8 2 C-6.66666667 3.33333333 -5.33333333 4.66666667 -4 6 C-1.29294488 5.85974801 -1.29294488 5.85974801 1 5 C0.67 3.35 0.34 1.7 0 0 Z " fill="#271E17" transform="translate(110,53)"/>
<path d="M0 0 C0.66 1.32 1.32 2.64 2 4 C1.67 4.33 1.34 4.66 1 5 C0.8181832 7.96967439 0.85037038 9.3244046 2 12 C8.25575304 18.78702719 16.8577945 22.91613517 25 27 C25 27.66 25 28.32 25 29 C26.98 29 28.96 29 31 29 C31 29.33 31 29.66 31 30 C20.09793159 31.48664569 10.6183671 23.29663327 2.3984375 17.05078125 C-0.15153613 14.87042921 -1.84413629 13.2652466 -2.265625 9.84375 C-2.26046875 9.0703125 -2.2553125 8.296875 -2.25 7.5 C-2.25773437 6.33984375 -2.25773437 6.33984375 -2.265625 5.15625 C-2 3 -2 3 0 0 Z " fill="#433B3B" transform="translate(66,81)"/>
<path d="M0 0 C-0.33 0.99 -0.66 1.98 -1 3 C-1.13156527 6.68382769 -1.16982138 9.49053585 0 13 C-0.4375 15.1875 -0.4375 15.1875 -1 17 C-3.63361256 16.62376963 -5.07220172 15.94785432 -7.25 14.375 C-9 12 -9 12 -9.5625 8.5625 C-8.62905125 2.65065791 -5.9920316 0 0 0 Z " fill="#EBCFAA" transform="translate(93,46)"/>
<path d="M0 0 C1.7936743 1.1217963 3.5848773 2.24754483 5.375 3.375 C6.37273437 4.00148438 7.37046875 4.62796875 8.3984375 5.2734375 C11 7 11 7 13 9 C12.01 9.495 12.01 9.495 11 10 C11 10.66 11 11.32 11 12 C9.35 11.67 7.7 11.34 6 11 C4.875 7.25 4.875 7.25 6 5 C5.34 5 4.68 5 4 5 C3.34 6.32 2.68 7.64 2 9 C0.68 8.34 -0.64 7.68 -2 7 C-1.34 4.69 -0.68 2.38 0 0 Z " fill="#48494D" transform="translate(103,102)"/>
<path d="M0 0 C5.65611463 -0.56561146 9.22642128 1.28608722 14 4 C14 4.99 14 5.98 14 7 C16.94236782 9.21168225 16.94236782 9.21168225 20 11 C19.01 11.495 19.01 11.495 18 12 C16.30419922 11.37915039 16.30419922 11.37915039 14.3046875 10.34765625 C13.58925781 9.98349609 12.87382813 9.61933594 12.13671875 9.24414062 C11.39035156 8.85419922 10.64398438 8.46425781 9.875 8.0625 C9.12089844 7.67642578 8.36679688 7.29035156 7.58984375 6.89257812 C5.72290903 5.93547868 3.86097372 4.96863894 2 4 C2 3.34 2 2.68 2 2 C2.99 1.67 3.98 1.34 5 1 C3.35 1 1.7 1 0 1 C0 0.67 0 0.34 0 0 Z " fill="#656565" transform="translate(67,80)"/>
<path d="M0 0 C1.65 0 3.3 0 5 0 C5 3.96 5 7.92 5 12 C3.35 12 1.7 12 0 12 C0 8.04 0 4.08 0 0 Z " fill="#FDEDEE" transform="translate(106,138)"/>
<path d="M0 0 C1.65 0 3.3 0 5 0 C4.67 0.66 4.34 1.32 4 2 C3.34 1.67 2.68 1.34 2 1 C2 1.66 2 2.32 2 3 C2.93972656 3.29003906 2.93972656 3.29003906 3.8984375 3.5859375 C4.71570313 3.84632812 5.53296875 4.10671875 6.375 4.375 C7.18710938 4.63023438 7.99921875 4.88546875 8.8359375 5.1484375 C11 6 11 6 13 8 C11 9 11 9 10 9 C10.66 10.32 11.32 11.64 12 13 C9.06120516 11.64763423 6.70767089 10.10057341 4.25 8 C3.63640625 7.484375 3.0228125 6.96875 2.390625 6.4375 C1 5 1 5 1 3 C0.34 2.67 -0.32 2.34 -1 2 C-0.67 1.34 -0.34 0.68 0 0 Z " fill="#150907" transform="translate(67,81)"/>
<path d="M0 0 C2.4375 0.25 2.4375 0.25 5 1 C7 4 7 4 7 8 C3.625 8.1875 3.625 8.1875 0 8 C-2 5 -2 5 -1.6875 2.875 C-1 1 -1 1 0 0 Z " fill="#8C7D5F" transform="translate(79,63)"/>
<path d="M0 0 C0.66 0 1.32 0 2 0 C1.39297368 6.6772895 -0.77631394 12.70127996 -3 19 C-3.99 18.67 -4.98 18.34 -6 18 C-5.19140353 15.186323 -4.37832997 12.37407931 -3.5625 9.5625 C-3.33240234 8.76005859 -3.10230469 7.95761719 -2.86523438 7.13085938 C-1.11328125 1.11328125 -1.11328125 1.11328125 0 0 Z " fill="#555555" transform="translate(99,72)"/>
<path d="M0 0 C0.625 2.375 0.625 2.375 1 5 C0.34 5.66 -0.32 6.32 -1 7 C-4.29714793 6.67028521 -5.6226839 6.3773161 -8 4 C-8 2.68 -8 1.36 -8 0 C-4.71023192 -1.09658936 -3.28696233 -0.79953138 0 0 Z " fill="#43423F" transform="translate(120,81)"/>
<path d="M0 0 C1.8125 0.1875 1.8125 0.1875 4 1 C5.75 3.5625 5.75 3.5625 7 6 C6.01 7.485 6.01 7.485 5 9 C2.375 9.1875 2.375 9.1875 0 9 C-1.125 7.3125 -1.125 7.3125 -2 5 C-1.125 2.25 -1.125 2.25 0 0 Z " fill="#574D38" transform="translate(107,87)"/>
<path d="M0 0 C2.33944736 0.28730055 4.6739143 0.61936779 7 1 C6.8125 3.375 6.8125 3.375 6 6 C3.625 7.4375 3.625 7.4375 1 8 C0.01 7.34 -0.98 6.68 -2 6 C-1.125 1.125 -1.125 1.125 0 0 Z " fill="#42403C" transform="translate(76,74)"/>
<path d="M0 0 C2.64 1.98 5.28 3.96 8 6 C7.01 6.495 7.01 6.495 6 7 C6 8.65 6 10.3 6 12 C2.64189605 10.61043975 0.81413448 9.17473533 -1 6 C-1.25 3.3125 -1.25 3.3125 -1 1 C-0.67 0.67 -0.34 0.34 0 0 Z " fill="#BC1D24" transform="translate(67,85)"/>
<path d="M0 0 C6.27933683 0.81398811 11.2278987 4.77201104 15.375 9.4375 C15.045 10.0975 14.715 10.7575 14.375 11.4375 C12.4375 11.125 12.4375 11.125 10.375 10.4375 C10.045 9.4475 9.715 8.4575 9.375 7.4375 C5.12337792 4.49484987 0.50634625 2.95063463 -4.625 2.4375 C-2.625 0.4375 -2.625 0.4375 0 0 Z " fill="#403F3C" transform="translate(96.625,42.5625)"/>
<path d="M0 0 C2.61580479 0.3269756 4.64078137 0.82039068 7 2 C7 2.99 7 3.98 7 5 C3.38026598 6.31626692 0.90432869 7 -3 7 C-2.25 2.25 -2.25 2.25 0 0 Z " fill="#DB5F33" transform="translate(97,57)"/>
<path d="M0 0 C0.9590625 0.2784375 0.9590625 0.2784375 1.9375 0.5625 C2.9584375 0.7790625 2.9584375 0.7790625 4 1 C4.33 0.67 4.66 0.34 5 0 C6.85287502 -0.07226502 8.70833878 -0.0838122 10.5625 -0.0625 C11.57441406 -0.05347656 12.58632812 -0.04445312 13.62890625 -0.03515625 C14.80259766 -0.01775391 14.80259766 -0.01775391 16 0 C16 0.33 16 0.66 16 1 C14.700625 1.20625 13.40125 1.4125 12.0625 1.625 C7.18480657 2.66526637 3.87011859 4.85207771 -0.0546875 7.85546875 C-0.69664063 8.23316406 -1.33859375 8.61085938 -2 9 C-2.99 8.67 -3.98 8.34 -5 8 C-1.25 5 -1.25 5 1 5 C0.67 3.35 0.34 1.7 0 0 Z " fill="#252320" transform="translate(110,53)"/>
<path d="M0 0 C0.7425 0.763125 1.485 1.52625 2.25 2.3125 C6.32471896 6.63217118 6.32471896 6.63217118 11.75 8.1875 C12.4925 8.125625 13.235 8.06375 14 8 C14.33 8.99 14.66 9.98 15 11 C3.71546523 9.33470943 3.71546523 9.33470943 0 5 C-0.3125 2.25 -0.3125 2.25 0 0 Z " fill="#403F3C" transform="translate(83,56)"/>
<path d="M0 0 C4.22246654 1.5238977 7.95026848 3.64331258 11.75 6 C12.33910156 6.35578125 12.92820312 6.7115625 13.53515625 7.078125 C17.87634967 9.75269934 17.87634967 9.75269934 19 12 C15.0309541 10.82732735 12.26073049 9.49989338 9 7 C8.360625 6.896875 7.72125 6.79375 7.0625 6.6875 C3.65640977 5.55213659 2.14871027 2.80526063 0 0 Z " fill="#C48026" transform="translate(74,88)"/>
<path d="M0 0 C0.66 0 1.32 0 2 0 C1.938125 0.763125 1.87625 1.52625 1.8125 2.3125 C1.74101915 5.04525312 1.74101915 5.04525312 3.5 6.8125 C3.995 7.204375 4.49 7.59625 5 8 C0.55129785 8.39253254 -2.14243493 7.15305957 -6 5 C-6 4.34 -6 3.68 -6 3 C-5.195625 2.87625 -4.39125 2.7525 -3.5625 2.625 C-2.716875 2.41875 -1.87125 2.2125 -1 2 C-0.67 1.34 -0.34 0.68 0 0 Z " fill="#252526" transform="translate(107,107)"/>
<path d="M0 0 C5.02692063 0.45699278 8.14896261 2.99241748 12 6 C11.67 6.99 11.34 7.98 11 9 C9.16136495 7.88368586 7.32920277 6.75670373 5.5 5.625 C4.4790625 4.99851562 3.458125 4.37203125 2.40625 3.7265625 C1.6121875 3.15679687 0.818125 2.58703125 0 2 C0 1.34 0 0.68 0 0 Z " fill="#333333" transform="translate(80,85)"/>
<path d="M0 0 C4.05606165 0.46800711 7.46588679 0.87953208 11 3 C11 3.66 11 4.32 11 5 C12.98 5 14.96 5 17 5 C17 5.33 17 5.66 17 6 C10.24520726 6.7342166 5.81475715 4.27591952 0 1 C0 0.67 0 0.34 0 0 Z " fill="#514A4A" transform="translate(80,105)"/>
<path d="M0 0 C-0.33 1.32 -0.66 2.64 -1 4 C-4.3 3.67 -7.6 3.34 -11 3 C-11 2.34 -11 1.68 -11 1 C-3.375 -1.125 -3.375 -1.125 0 0 Z " fill="#2E1618" transform="translate(102,107)"/>
<path d="M0 0 C2 1 4 2 6 3 C6.33 2.34 6.66 1.68 7 1 C7.66 2.32 8.32 3.64 9 5 C7.375 5.6875 7.375 5.6875 5 6 C1.75 4.5625 1.75 4.5625 -1 3 C-0.67 2.01 -0.34 1.02 0 0 Z " fill="#0F0505" transform="translate(95,100)"/>
<path d="M0 0 C4.66861981 1.60483806 9.09258167 3.97490194 13 7 C13 7.66 13 8.32 13 9 C8.33138019 7.39516194 3.90741833 5.02509806 0 2 C0 1.34 0 0.68 0 0 Z " fill="#290F07" transform="translate(81,94)"/>
<path d="M0 0 C4.83256305 0.41421969 6.82679218 2.46413986 10 6 C9.67 6.66 9.34 7.32 9 8 C4.7257442 6.4169423 2.73468206 3.49431596 0 0 Z " fill="#3A3A3A" transform="translate(93,94)"/>
<path d="M0 0 C5.29441695 -0.50423019 7.81413519 0.81076967 12 4 C8.30581799 5.231394 5.7943739 4.64432764 2 4 C2 3.34 2 2.68 2 2 C2.99 1.67 3.98 1.34 5 1 C3.35 1 1.7 1 0 1 C0 0.67 0 0.34 0 0 Z " fill="#474747" transform="translate(67,80)"/>
<path d="M0 0 C2 1.625 2 1.625 3 3 C2.67 3.66 2.34 4.32 2 5 C-0.46800047 3.84826645 -2.04783565 2.95216435 -4 1 C-6.65537372 0.43479997 -9.29144713 0.26211802 -12 0 C-8.03482763 -2.97387927 -4.28737686 -1.66579611 0 0 Z " fill="#5A5855" transform="translate(129,53)"/>
<path d="M0 0 C4.875 0.875 4.875 0.875 6 2 C6.04063832 3.66617115 6.042721 5.33388095 6 7 C4.35 7 2.7 7 1 7 C1.99 6.67 2.98 6.34 4 6 C4 5.01 4 4.02 4 3 C3.01 3 2.02 3 1 3 C0.67 3.66 0.34 4.32 0 5 C0 3.35 0 1.7 0 0 Z " fill="#2D2920" transform="translate(79,63)"/>
<path d="M0 0 C1.32 0.33 2.64 0.66 4 1 C4 1.99 4 2.98 4 4 C4.66 4 5.32 4 6 4 C6.33 3.01 6.66 2.02 7 1 C6.67 2.98 6.34 4.96 6 7 C5.67 6.34 5.34 5.68 5 5 C3.35 5 1.7 5 0 5 C0 3.35 0 1.7 0 0 Z " fill="#666669" transform="translate(116,115)"/>
<path d="M0 0 C0.66 0 1.32 0 2 0 C1.53199289 4.05606165 1.12046792 7.46588679 -1 11 C-2.1875 9.4375 -2.1875 9.4375 -3 7 C-1.625 3.25 -1.625 3.25 0 0 Z " fill="#616161" transform="translate(99,72)"/>
<path d="M0 0 C-2 2 -2 2 -4.0625 3 C-6.16865601 3.84589942 -6.16865601 3.84589942 -7 6 C-7.66 6 -8.32 6 -9 6 C-9.33 4.68 -9.66 3.36 -10 2 C-6.5980513 -0.09350689 -3.94727588 -0.17942163 0 0 Z " fill="#291F16" transform="translate(107,62)"/>
<path d="M0 0 C1.5 1.375 1.5 1.375 3 3 C3 5.15634036 2.5534764 6.92446352 2 9 C0.68 8.34 -0.64 7.68 -2 7 C-1.34 4.69 -0.68 2.38 0 0 Z " fill="#5D5D64" transform="translate(103,102)"/>
<path d="M0 0 C0.66 0.66 1.32 1.32 2 2 C4.57061311 2.64767793 4.57061311 2.64767793 7 3 C6.67 3.99 6.34 4.98 6 6 C4.33388095 6.042721 2.66617115 6.04063832 1 6 C0 5 0 5 -0.0625 2.4375 C-0.041875 1.633125 -0.02125 0.82875 0 0 Z " fill="#333334" transform="translate(114,117)"/>
<path d="M0 0 C3.99500618 1.3697164 6.80009492 3.25722422 10 6 C7.8125 6.3125 7.8125 6.3125 5 6 C2.1875 3.5625 2.1875 3.5625 0 1 C0 0.67 0 0.34 0 0 Z " fill="#352B2B" transform="translate(73,99)"/>
<path d="M0 0 C0.99 0.33 1.98 0.66 3 1 C2.67 3.97 2.34 6.94 2 10 C0 8 0 8 -0.1953125 6.0546875 C-0.13020833 4.03645833 -0.06510417 2.01822917 0 0 Z " fill="#4C4945" transform="translate(130,57)"/>
<path d="M0 0 C0.66 0 1.32 0 2 0 C1.67 2.31 1.34 4.62 1 7 C0.01 7 -0.98 7 -2 7 C-1.125 1.125 -1.125 1.125 0 0 Z " fill="#686868" transform="translate(92,68)"/>
<path d="M0 0 C2.0625 0.4375 2.0625 0.4375 4 1 C4 1.99 4 2.98 4 4 C2.02 4.33 0.04 4.66 -2 5 C-1.125 1.125 -1.125 1.125 0 0 Z " fill="#E6782E" transform="translate(100,58)"/>
<path d="M0 0 C0.66 0.66 1.32 1.32 2 2 C1.34 2.66 0.68 3.32 0 4 C-0.16687448 6.58354218 -0.16687448 6.58354218 0 9 C-1.32 8.67 -2.64 8.34 -4 8 C-2.25 2.25 -2.25 2.25 0 0 Z " fill="#20100B" transform="translate(95,56)"/>
<path d="M0 0 C0.66 0 1.32 0 2 0 C1.67 2.31 1.34 4.62 1 7 C0.01 7 -0.98 7 -2 7 C-1.125 1.125 -1.125 1.125 0 0 Z " fill="#646464" transform="translate(106,73)"/>
<path d="M0 0 C0.66 0 1.32 0 2 0 C1.43628586 3.26954202 0.50037734 4.82575883 -2 7 C-3.32 6.34 -4.64 5.68 -6 5 C-5.195625 4.54625 -4.39125 4.0925 -3.5625 3.625 C-0.91143428 2.25274335 -0.91143428 2.25274335 0 0 Z " fill="#353431" transform="translate(129,65)"/>
<path d="M0 0 C0.99 0 1.98 0 3 0 C3.33 1.65 3.66 3.3 4 5 C2.35 5 0.7 5 -1 5 C-0.67 3.35 -0.34 1.7 0 0 Z " fill="#FBD5D7" transform="translate(60,139)"/>
<path d="M0 0 C2.31 0.33 4.62 0.66 7 1 C7 1.99 7 2.98 7 4 C6.01 4 5.02 4 4 4 C4 3.34 4 2.68 4 2 C2.68 2 1.36 2 0 2 C0 1.34 0 0.68 0 0 Z " fill="#343230" transform="translate(76,74)"/>
<path d="M0 0 C2.31 0.33 4.62 0.66 7 1 C6 4 6 4 4 6 C3.71125 5.38125 3.4225 4.7625 3.125 4.125 C2.06279958 1.86674235 2.06279958 1.86674235 0 0 Z " fill="#46464A" transform="translate(109,115)"/>
<path d="M0 0 C0.33 1.32 0.66 2.64 1 4 C0.01 4.495 0.01 4.495 -1 5 C-3.125 4.0625 -3.125 4.0625 -5 3 C-5 2.34 -5 1.68 -5 1 C-3.35 0.67 -1.7 0.34 0 0 Z " fill="#978055" transform="translate(120,82)"/>
<path d="M0 0 C1.65 0.33 3.3 0.66 5 1 C4.67 1.99 4.34 2.98 4 4 C2.35 4.33 0.7 4.66 -1 5 C-0.67 3.35 -0.34 1.7 0 0 Z " fill="#9A8357" transform="translate(75,75)"/>
<path d="M0 0 C0.66 0 1.32 0 2 0 C1.67 1.65 1.34 3.3 1 5 C0.34 5 -0.32 5 -1 5 C-0.67 3.35 -0.34 1.7 0 0 Z " fill="#626262" transform="translate(103,83)"/>
<path d="M0 0 C0.66 0 1.32 0 2 0 C1.67 1.65 1.34 3.3 1 5 C0.34 5 -0.32 5 -1 5 C-0.67 3.35 -0.34 1.7 0 0 Z " fill="#616161" transform="translate(89,78)"/>
</svg>
